<mxfile host="app.diagrams.net" modified="2023-05-24T05:52:41.135Z" agent="Mozilla/5.0 (Windows NT 10.0; Win64; x64) AppleWebKit/537.36 (KHTML, like Gecko) Chrome/113.0.0.0 Safari/537.36 Edg/113.0.1774.50" version="21.3.3" etag="w_CP2EiPUEBuyD0Jfwlv" type="github">
  <diagram name="第 1 页" id="kA5nwrn9Iyu9ZlMpJHmj">
    <mxGraphModel>
      <root>
        <mxCell id="0" />
        <mxCell id="1" parent="0" />
      </root>
    </mxGraphModel>
  </diagram>
</mxfile>
